<?xml version="1.0" standalone="no"?>
<!DOCTYPE svg PUBLIC "-//W3C//DTD SVG 1.1//EN" "http://www.w3.org/Graphics/SVG/1.1/DTD/svg11.dtd" >
<svg xmlns="http://www.w3.org/2000/svg">
<metadata>Generated by IcoMoon</metadata>
<defs>
<font id="icomoon" horiz-adv-x="1024">
<font-face units-per-em="1024" ascent="960" descent="-64" />
<missing-glyph horiz-adv-x="1024" />
<glyph unicode="&#x20;" horiz-adv-x="512" d="" />
<glyph unicode="&#xe900;" glyph-name="home" d="M1024 369.556l-512 397.426-512-397.428v162.038l512 397.426 512-397.428zM896 384v-384h-256v256h-256v-256h-256v384l384 288z" />
<glyph unicode="&#xe901;" glyph-name="map-trace" d="M1023.666-23.673l-118.519 602.076c-1.64 8.337-8.948 14.345-17.444 14.345h-223.979c25.813 64.28 45.132 123.584 45.132 157.103 0 105.335-85.696 191.031-191.031 191.031s-191.031-85.696-191.031-191.031c0-33.522 19.321-92.824 45.132-157.103h-235.631c-8.493 0-15.803-6.009-17.444-14.345l-118.519-602.076c-1.026-5.212 0.337-10.617 3.712-14.722 3.378-4.105 8.415-6.485 13.732-6.485h988.444c5.317 0 10.354 2.38 13.732 6.485 3.375 4.105 4.738 9.505 3.712 14.722zM287.972 140.869h281.982c18.98-30.023 58.52-49.515 102.556-49.515 29.016 0 56.439 8.412 77.359 23.362l195.226-124.044h-663.369l6.246 150.196zM707.721 228.392c0 0 0.002 0 0.005-0.002 26.484-9.211 43.598-27.989 43.598-47.851 0-13.985-8.116-24.597-14.929-31.033v0c-14.976-14.151-38.86-22.597-63.886-22.597-34.584 0-65.69 15.967-75.648 38.834 0 0 0 0.005-0.002 0.005-2.1 4.819-3.164 9.799-3.164 14.791 0 29.073 36.094 53.63 78.815 53.63 12.335 0 24.183-1.941 35.212-5.777zM980.776 10.126l-205.751 130.731c7.72 12.231 11.854 25.82 11.854 39.68 0 29.497-18.593 56.709-48.723 73.145l141.81 268.551 100.809-512.107zM517.826 905.327c85.729 0 155.475-69.746 155.475-155.475 0-67.655-100.866-280.865-155.475-388.734-54.609 107.868-155.475 321.079-155.475 388.734 0 85.727 69.746 155.475 155.475 155.475zM502.066 313.97c3.063-5.876 9.138-9.555 15.761-9.555s12.693 3.684 15.758 9.555c4.29 8.218 66.366 127.583 115.439 243.219h209.185l-153.664-291.010c-10.347 2.337-21.065 3.546-32.038 3.546-63.064 0-114.37-40.009-114.37-89.185 0-1.38 0.050-2.75 0.128-4.117h-268.814l15.839 380.769h81.337c49.076-115.639 111.151-235.003 115.439-243.221zM150.914 557.189h118.789l-16.116-387.397-198.751-100.681 96.078 488.078zM46.123 24.844l205.772 104.237-5.758-138.408h-206.741l6.727 34.171zM608.695 751.753c0 50.105-40.763 90.866-90.868 90.866s-90.868-40.761-90.868-90.866 40.763-90.868 90.868-90.868c50.105 0 90.868 40.763 90.868 90.868zM462.514 751.753c0 30.497 24.813 55.31 55.313 55.31s55.313-24.813 55.313-55.31c0-30.5-24.813-55.313-55.313-55.313s-55.313 24.811-55.313 55.313z" />
<glyph unicode="&#xe902;" glyph-name="map-sign" d="M835.191 601.583l153.481 138.155c4.403 3.908 6.929 9.574 6.929 15.462s-2.526 11.537-6.861 15.394l-153.549 138.189h-328.926v34.15c0 9.438-7.646 17.067-17.067 17.067s-17.067-7.629-17.067-17.067v-34.15h-300.425c-31.966 0-57.958-25.993-57.958-57.958v-191.249c0-31.966 25.993-57.975 57.958-57.975h300.442v-34.133h-283.341l-153.566-138.206c-4.352-3.925-6.844-9.523-6.844-15.394s2.492-11.469 6.861-15.411l153.549-138.189h283.324v-307.2c0-9.438 7.646-17.067 17.067-17.067s17.067 7.629 17.067 17.067v307.2h351.642c31.966 0 57.958 25.993 57.958 57.958v191.283c0 31.966-25.993 57.958-57.958 57.958h-351.642v34.116h328.926z" />
<glyph unicode="&#xe903;" glyph-name="add-marker" d="M967.665 903.672c-37.54 37.55-82.77 56.328-135.654 56.328h-640.005c-52.884 0-98.114-18.778-135.671-56.328-37.55-37.557-56.328-82.784-56.328-135.671v-639.998c0-52.882 18.778-98.114 56.328-135.671 37.557-37.557 82.787-56.335 135.671-56.335h639.998c52.884 0 98.114 18.778 135.654 56.335 37.557 37.557 56.335 82.787 56.335 135.671v639.998c-0.002 52.886-18.781 98.121-56.328 135.671zM853.339 405.336c0-11.554-4.229-21.566-12.658-29.998-8.455-8.439-18.459-12.675-30.015-12.675h-213.315v-213.325c0-11.554-4.243-21.557-12.684-29.998-8.43-8.453-18.44-12.672-29.998-12.672h-85.329c-11.554 0-21.555 4.219-29.998 12.672-8.446 8.439-12.67 18.442-12.67 29.998v213.325h-213.334c-11.554 0-21.55 4.233-29.998 12.675-8.441 8.43-12.665 18.442-12.665 29.998v85.339c0 11.554 4.224 21.555 12.665 29.998 8.446 8.446 18.442 12.67 29.998 12.67h213.336v213.327c0 11.556 4.224 21.559 12.67 29.998 8.444 8.448 18.442 12.675 29.998 12.675h85.329c11.556 0 21.566-4.226 29.998-12.675 8.439-8.439 12.684-18.442 12.684-29.998v-213.329h213.315c11.554 0 21.557-4.224 30.015-12.67 8.437-8.441 12.658-18.442 12.658-29.998v-85.336z" />
<glyph unicode="&#xe904;" glyph-name="map-marker" d="M753.334 860.002c-66.661 66.672-147.112 99.998-241.334 99.998-94.226 0-174.668-33.333-241.334-99.998-66.663-66.663-99.998-147.108-99.998-241.334 0-48.45 7.332-88.223 21.994-119.335l243.335-516.012c6.669-14.655 17.006-26.211 31.005-34.647 14.001-8.446 28.999-12.675 45.003-12.675 16 0 31.005 4.229 45.003 12.675 14.001 8.437 24.548 19.993 31.661 34.647l242.653 516.012c14.669 31.112 22.005 70.887 22.005 119.335 0.012 94.226-33.316 174.661-99.994 241.334zM632.661 498c-33.328-33.326-73.547-49.996-120.661-49.996s-87.333 16.67-120.67 49.996c-33.333 33.337-50.003 73.556-50.003 120.67 0 47.109 16.67 87.335 50.003 120.663 33.337 33.333 73.563 50.003 120.67 50.003 47.114 0 87.333-16.67 120.661-50.003 33.33-33.326 50-73.554 50-120.663s-16.668-87.326-50-120.67z" />
<glyph unicode="&#xe905;" d="M883.687 827.877c-7.5 3.5-16.344 2.344-22.719-2.968-48.091-40.221-106.092-61.501-167.658-61.501-60.965 0-120.625 21.843-168 61.501-55.779 46.499-123.061 71.094-194.625 71.094-69.562 0-137.717-24.533-192.283-69.126-6.25-3.75-10.404-10.562-10.404-18.344v-465.061c0-8.282 4.78-15.812 12.28-19.312 7.532-3.5 16.376-2.344 22.719 2.968 48.063 40.187 106.062 61.405 167.688 61.405s119.595-21.218 167.656-61.437c54.937-45.845 124.189-71.096 194.967-71.096 69.564 0 137.719 24.533 192.283 69.158 6.218 3.718 10.406 10.532 10.406 18.312v465.063c0.002 8.28-4.81 15.812-12.31 19.344z" />
<glyph unicode="&#xe906;" d="M703.998 256.188c65.814 2.376 129.845 26.625 181.594 68.97 6.218 3.718 10.406 10.532 10.406 18.312v465.063c0 8.282-4.812 15.812-12.312 19.344-7.5 3.5-16.344 2.344-22.719-2.968-45.311-37.907-99.374-58.937-156.968-61.281l-0.002-507.44z" />
<glyph unicode="&#xe907;" d="M511.624 835.689c-52.937 39.499-115.127 60.311-180.938 60.311-3.562 0-7.124-0.094-10.688-0.218v-507.47c3.532 0.156 7.094 0.218 10.688 0.218 61.625 0 119.595-21.218 167.656-61.437 4.344-3.624 8.782-7.094 13.282-10.438v519.034z" />
<glyph unicode="&#xe908;" d="M138.405 826.877c-6.25-3.75-10.404-10.562-10.404-18.344v-465.061c0-8.282 4.78-15.812 12.28-19.312 7.532-3.5 16.376-2.344 22.719 2.968 45.283 37.843 99.376 58.875 157 61.187v0 507.468c-65.812-2.376-129.811-26.595-181.594-68.906z" />
<glyph unicode="&#xe909;" d="M312.311 636.656c-65.344 0-129.561-17.876-184.31-50.811v-242.376c0-8.282 4.78-15.812 12.28-19.312 7.532-3.5 16.376-2.344 22.719 2.968 45.283 37.843 99.376 58.875 157 61.187v0 248.25c-2.562 0.064-5.126 0.094-7.688 0.094z" />
<glyph unicode="&#xe90a;" d="M511.624 316.657v259.656c-56.249 38.125-121.969 58.843-191.626 60.249v-248.25c3.532 0.156 7.094 0.218 10.688 0.218 61.625 0 119.595-21.218 167.656-61.437 4.346-3.624 8.782-7.092 13.282-10.436z" />
<glyph unicode="&#xe90b;" d="M895.999 343.47v221.813c-52.905-40.033-116.625-61.219-184.312-61.219-2.562 0-5.124 0.062-7.688 0.124v-248.002c65.814 2.376 129.845 26.625 181.594 68.97 6.218 3.72 10.406 10.534 10.406 18.314z" />
<glyph unicode="&#xe90c;" d="M149.311-64c-11.782 0-21.31 9.532-21.31 21.312v981.345c0 11.782 9.53 21.343 21.31 21.343s21.345-9.562 21.345-21.343v-981.345c0-11.782-9.562-21.312-21.345-21.312z" />
<glyph unicode="&#xe90d;" d="M703.998 504.187c-64.466 1.594-127.155 23.219-177.344 61.375-4.938 3.718-9.938 7.312-15.030 10.75v-259.656c52.625-39.219 116.501-60.657 181.686-60.657 3.562 0 7.124 0.062 10.688 0.188v248z" />
<glyph unicode="&#xe90e;" d="M926.897-64h-812.138l211.862 564.966h388.414z" />
<glyph unicode="&#xe90f;" d="M79.448 677.517v-582.621" />
<glyph unicode="&#xe910;" d="M944.552 677.517v-582.621" />
<glyph unicode="&#xe911;" d="M520.828-28.69c-9.746 0-17.655 7.892-17.655 17.655v52.966c0 9.763 7.91 17.655 17.655 17.655s17.655-7.892 17.655-17.655v-52.966c0-9.763-7.91-17.655-17.655-17.655z" />
<glyph unicode="&#xe912;" d="M520.828 94.897c-9.746 0-17.655 7.892-17.655 17.655v52.966c0 9.763 7.91 17.655 17.655 17.655s17.655-7.892 17.655-17.655v-52.966c0-9.763-7.91-17.655-17.655-17.655z" />
<glyph unicode="&#xe913;" d="M520.828 218.483c-9.746 0-17.655 7.892-17.655 17.655v35.31c0 9.763 7.91 17.655 17.655 17.655s17.655-7.892 17.655-17.655v-35.31c0-9.763-7.91-17.655-17.655-17.655z" />
<glyph unicode="&#xe914;" d="M520.828 306.759c-9.746 0-17.655 7.892-17.655 17.655v35.31c0 9.763 7.91 17.655 17.655 17.655s17.655-7.892 17.655-17.655v-35.31c0-9.763-7.91-17.655-17.655-17.655z" />
<glyph unicode="&#xe915;" d="M520.828 395.034c-9.746 0-17.655 7.892-17.655 17.655v35.31c0 9.763 7.91 17.655 17.655 17.655s17.655-7.892 17.655-17.655v-35.31c0-9.763-7.91-17.655-17.655-17.655z" />
<glyph unicode="&#xe916;" d="M26.483 960h194.207v-141.241h-194.207v141.241z" />
<glyph unicode="&#xe917;" d="M26.483 818.759h194.207v-141.241h-194.207v141.241z" />
<glyph unicode="&#xe918;" d="M220.69 818.759h194.207v-141.241h-194.207v141.241z" />
<glyph unicode="&#xe919;" d="M220.69 960h194.207v-141.241h-194.207v141.241z" />
<glyph unicode="&#xe91a;" d="M414.897 960h194.207v-141.241h-194.207v141.241z" />
<glyph unicode="&#xe91b;" d="M414.897 818.759h194.207v-141.241h-194.207v141.241z" />
<glyph unicode="&#xe91c;" d="M803.31 960h194.207v-141.241h-194.207v141.241z" />
<glyph unicode="&#xe91d;" d="M803.31 818.759h194.207v-141.241h-194.207v141.241z" />
<glyph unicode="&#xe91e;" d="M609.103 818.759h194.207v-141.241h-194.207v141.241z" />
<glyph unicode="&#xe91f;" d="M609.103 960h194.207v-141.241h-194.207v141.241z" />
<glyph unicode="&#xe947;" glyph-name="location" d="M512 960c-176.732 0-320-143.268-320-320 0-320 320-704 320-704s320 384 320 704c0 176.732-143.27 320-320 320zM512 448c-106.040 0-192 85.96-192 192s85.96 192 192 192 192-85.96 192-192-85.96-192-192-192z" />
<glyph unicode="&#xe948;" glyph-name="location2" d="M512 960c-176.732 0-320-143.268-320-320 0-320 320-704 320-704s320 384 320 704c0 176.732-143.27 320-320 320zM512 444c-108.248 0-196 87.752-196 196s87.752 196 196 196 196-87.752 196-196-87.752-196-196-196zM388 640c0 68.483 55.517 124 124 124s124-55.517 124-124c0-68.483-55.517-124-124-124s-124 55.517-124 124z" />
<glyph unicode="&#xea0a;" glyph-name="plus" d="M992 576h-352v352c0 17.672-14.328 32-32 32h-192c-17.672 0-32-14.328-32-32v-352h-352c-17.672 0-32-14.328-32-32v-192c0-17.672 14.328-32 32-32h352v-352c0-17.672 14.328-32 32-32h192c17.672 0 32 14.328 32 32v352h352c17.672 0 32 14.328 32 32v192c0 17.672-14.328 32-32 32z" />
<glyph unicode="&#xea53;" glyph-name="checkbox-unchecked" d="M896 960h-768c-70.4 0-128-57.6-128-128v-768c0-70.4 57.6-128 128-128h768c70.4 0 128 57.6 128 128v768c0 70.4-57.6 128-128 128zM896 64h-768v768h768v-768z" />
</font>
</defs>
</svg>
